<?xml version="1.0" encoding="UTF-8"?>
<svg width="124pt" height="485.81pt" version="1.0" viewBox="0 0 124 485.81" xmlns="http://www.w3.org/2000/svg" xmlns:xlink="http://www.w3.org/1999/xlink">
 <defs>
  <linearGradient id="linearGradient5424" x1="1623.7" x2="3515.9" y1="72.02" y2="5034.9" gradientUnits="userSpaceOnUse">
   <stop stop-color="#4478bc" offset="0"/>
   <stop stop-color="#800080" offset="1"/>
  </linearGradient>
  <linearGradient id="linearGradient834" x1="1623.7" x2="3515.9" y1="72.02" y2="5034.9" gradientUnits="userSpaceOnUse" xlink:href="#linearGradient5424"/>
 </defs>
 <g transform="matrix(.1 0 0 -.1 -194 498.93)" fill="url(#linearGradient834)">
  <path d="m2425 4974c-222-47-412-233-470-459-8-32-15-94-15-138 0-70 262-2414 277-2476 11-49 54-122 93-161 131-131 344-137 487-15 39 33 95 125 107 177 15 64 276 2403 276 2474 0 166-60 307-184 429-158 157-353 215-571 169z"/>
  <path d="m2432 1160c-102-27-167-64-242-140-102-103-150-219-150-365 0-148 46-261 150-366 205-210 532-210 739-2 104 105 151 219 151 368 0 147-47 261-150 366-47 48-86 76-140 102-125 59-231 70-358 37z"/>
 </g>
</svg>
