<?xml version="1.0" encoding="UTF-8"?>
<svg width="460.01pt" height="408.08pt" version="1.0" viewBox="0 0 460.01 408.08" xmlns="http://www.w3.org/2000/svg" xmlns:xlink="http://www.w3.org/1999/xlink">
 <defs>
  <linearGradient id="linearGradient834" x1="404.85" x2="3451.9" y1="197.31" y2="4961.6" gradientUnits="userSpaceOnUse">
   <stop stop-color="#4478bc" offset="0"/>
   <stop stop-color="#800080" offset="1"/>
  </linearGradient>
 </defs>
 <g transform="matrix(.1 0 0 -.1 -25.995 460)" fill="url(#linearGradient834)">
  <path d="m604 4576c-59-27-116-90-132-145-8-25-12-128-12-290 0-231-1-252-17-257-57-18-97-41-124-71-63-73-59 41-59-1611v-1506l21-43c25-53 86-106 138-121 55-17 4227-17 4282 0 52 15 113 68 138 121l21 43v1506c0 1652 4 1538-59 1611-27 30-67 53-123 71-16 5-18 19-18 108 0 82-5 112-21 148-25 55-62 95-114 123l-40 22-1138 3-1138 2-15 38c-66 161-107 220-179 253-38 17-78 19-700 19h-660zm1414-112c21-23 56-87 82-150l46-109 2321-10 37-29c52-39 66-78 66-186v-90h-70v103c0 67-4 107-12 115-17 17-3839 17-3856 0-8-8-12-48-12-115v-103h-70v244c0 254 4 282 43 325 48 52 34 51 736 48l654-2zm2392-504v-70h-3700v140h3700zm279-178c19-9 44-30 55-45 21-28 21-29 24-1526l2-1498-23-34c-12-19-38-42-57-51-33-17-155-18-2130-18s-2097 1-2130 18c-19 9-45 32-57 51l-23 34 2 1498c3 1497 3 1498 24 1526 11 15 36 36 55 45 32 17 154 18 2129 18s2097-1 2129-18z"/>
  <path d="m410 3275c-41-50 93-352 248-562 96-129 335-363 484-474 705-525 1731-855 3120-1004 294-31 314-31 328-4 14 26-11 69-40 69-41 0-422 42-600 66-1137 153-2028 452-2659 891-389 272-700 647-787 950-9 32-21 64-26 71-14 17-53 15-68-3z"/>
 </g>
</svg>
