<?xml version="1.0" encoding="UTF-8"?>
<svg width="242.1pt" height="123.31pt" preserveAspectRatio="xMidYMid" version="1.0" viewBox="0 0 242.1 123.31" xmlns="http://www.w3.org/2000/svg">
 <g transform="matrix(.1 0 0 -.1 0 280)">
  <path d="m537.37 2790.9c-194-23-384-155-473-329-59-116-81-296-51-420 45-184 175-343 346-420 122-55 115-55 855-55 632 0 690 1 750 18 232 65 403 253 447 493 35 188-27 390-163 530-100 104-223 164-374 184-91 11-1235 11-1337-1zm200-174c207-44 348-220 349-435 1-389-459-593-744-330-191 174-198 461-17 643 83 83 196 132 314 136 17 0 61-6 98-14zm1232-135c36-14 28-29-31-61-101-56-151-149-141-265 7-98 55-168 147-217 24-12 45-28 47-34 7-21-41-36-114-36-175 0-313 137-313 312 0 133 83 252 207 297 45 16 161 18 198 4z"/>
  <path d="m1804.4 2442.9c-109-33-200-152-200-261 0-56 31-132 73-177 50-55 102-82 169-90l51-6-46 43c-137 125-138 334-2 459l45 41-33-1c-17 0-43-4-57-8z"/>
 </g>
</svg>
