<?xml version="1.0" encoding="UTF-8"?>
<svg width="240.83pt" height="121.82pt" preserveAspectRatio="xMidYMid" version="1.0" viewBox="0 0 240.83 121.82" xmlns="http://www.w3.org/2000/svg" xmlns:xlink="http://www.w3.org/1999/xlink">
 <defs>
  <linearGradient id="linearGradient3272" x1="1098" x2="87.984" y1="2892.2" y2="1677.9" gradientUnits="userSpaceOnUse">
   <stop stop-color="#800080" offset="0"/>
   <stop stop-color="#4478bc" offset="1"/>
  </linearGradient>
 </defs>
 <g transform="matrix(.1 0 0 -.1 0 280)">
  <path d="m450.28 2780.8c-105-28-187-75-268-155-121-120-173-235-181-405-6-124 8-196 64-310 47-98 158-211 258-262 136-70 127-69 910-66 695 3 700 3 762 25 179 65 312 195 380 371 35 90 44 265 18 361-56 217-232 390-450 446-50 13-163 15-740 14-636 0-685-1-753-19zm1451-160c394-122 434-652 63-835-146-73-323-57-455 40-226 167-252 484-55 681 119 119 290 162 447 114zm-1245-160c3-97-5-123-33-100-19 16-22 169-3 188 25 25 33 4 36-88zm-156-97c38-37 48-66 27-79-15-9-114 90-105 105 13 20 40 11 78-26zm348 19c0-10-20-38-45-62-42-42-46-43-62-27s-15 20 27 62c46 47 80 58 80 27zm-142-97c64-54 67-131 6-184-77-69-194-15-194 89 0 97 116 156 188 95zm-254-71c9-3 16-14 16-24 0-24-19-30-100-30-95 0-122 14-88 48 12 12 143 17 172 6zm541-8c16-12 17-16 6-30-10-12-32-16-96-16s-86 4-96 16c-23 27 14 44 96 44 45 0 78-5 90-14zm-455-135c0-10-21-38-46-61-42-39-47-41-62-26s-13 20 28 61c47 47 80 58 80 26zm272-18c39-38 48-67 24-76-17-7-111 87-102 102 13 20 40 11 78-26zm-152-129c0-78-3-96-16-101-25-9-34 16-34 103 0 81 10 107 36 97 11-4 14-29 14-99z" fill="url(#linearGradient3272)"/>
  <path d="m594.28 2239.8c-47-37-20-119 40-119 30 0 74 41 74 70 0 26-43 70-68 70-11 0-31-9-46-21z" fill="#594fa7"/>
 </g>
</svg>
