<?xml version="1.0" encoding="UTF-8"?>
<svg width="509.94pt" height="402.9pt" version="1.0" viewBox="0 0 509.94 402.9" xmlns="http://www.w3.org/2000/svg" xmlns:xlink="http://www.w3.org/1999/xlink">
 <defs>
  <linearGradient id="linearGradient66051" x1="112.17" x2="4756.8" y1="666.75" y2="4235.7" gradientUnits="userSpaceOnUse">
   <stop stop-color="#4478bc" offset="0"/>
   <stop stop-color="#800080" offset="1"/>
  </linearGradient>
  <linearGradient id="linearGradient838" x1="112.17" x2="4756.8" y1="666.75" y2="4235.7" gradientUnits="userSpaceOnUse" xlink:href="#linearGradient66051"/>
 </defs>
 <g transform="matrix(.1 0 0 -.1 -1.0001 457.49)" fill="url(#linearGradient838)">
  <path d="m2935 4569c-412-32-835-205-1139-465l-40-34h-366c-356 0-368-1-394-21-30-24-34-63-10-97 15-22 16-22 315-22 164 0 299-3 299-6 0-4-33-47-74-98-96-118-171-235-237-368l-53-107-399-3c-381-3-399-4-413-22-22-31-18-82 8-100 19-14 73-16 385-16 200 0 363-2 363-5s-11-44-25-92c-56-193-69-299-69-553s13-360 69-553c14-48 25-89 25-92s-254-5-565-5c-552 0-565 0-585-20-29-29-26-74 6-99 26-21 35-21 613-21h586l54-107c66-134 141-251 237-369 41-51 74-94 74-98 0-3-137-6-305-6-292 0-306-1-325-20-25-25-26-61-1-91l19-24 767-6 69-55c402-322 899-479 1408-443 394 27 753 160 1065 392 629 470 927 1249 772 2022-122 607-544 1146-1109 1414-320 151-676 217-1025 190zm90-285v-149l-100-12c-317-40-614-166-841-359l-51-43-108 109-107 108 77 63c240 198 532 339 825 398 96 19 271 41 295 36 6-1 10-59 10-151zm270 141c264-20 589-137 832-298 98-66 233-173 233-185 0-4-74-32-164-62l-165-56-73 49c-205 136-469 228-725 253l-73 7v147c0 80 3 150 6 153 4 4 16 5 28 2 12-2 57-7 101-10zm105-463c167-40 329-107 468-195l64-40-746-746h-87c-60 0-103-6-142-19-179-63-294-234-286-422l4-69-127-129c-138-139-167-185-168-265 0-130 98-229 229-229 84 0 127 27 271 168l126 123h85c92 0 150 16 232 64 122 72 206 237 194 383l-5 62 374 373c356 356 374 373 389 354 78-103 172-311 210-465 114-472-2-939-322-1306-52-59-73-91-73-110 0-22 29-57 141-170l141-142-74-62c-223-188-533-339-823-398-403-84-817-32-1190 147-131 63-291 166-399 256l-68 57 141 142c111 112 141 148 141 169 0 20-21 51-72 110-180 207-291 434-344 702-27 134-25 396 4 532 93 434 357 787 742 991 142 75 311 130 485 156 17 2 113 3 215 1 140-3 206-8 270-23zm-1571-236 103-103-79-101c-171-221-280-478-314-739-6-49-13-103-15-120l-5-33h-299v35c0 66 31 259 61 372 53 209 158 432 285 609 63 88 143 184 153 184 3 0 53-47 110-104zm2756-28c220-292 353-633 381-981l7-88-308 6-7 79c-22 240-109 489-249 707l-49 75 56 168c66 195 50 192 169 34zm-285 60c0-7-12-49-26-93l-26-80-791-793-128 132 786 786 85 29c100 35 100 35 100 19zm-1084-939c53-25 108-79 136-132 18-34 23-58 23-127s-5-93-23-127c-93-175-322-213-459-75-54 54-83 124-83 204 0 206 221 347 406 257zm-1692-351c3-13 6-40 6-60s9-85 20-143c50-259 156-488 318-689l64-79-107-106-106-106-45 50c-174 197-325 484-394 751-29 110-60 304-60 369v35h149c146 0 149 0 155-22zm3442-65c-22-265-113-555-249-786-59-99-187-276-226-311l-22-20-106 106-106 107 55 68c193 237 321 543 344 824 3 41 7 80 10 87 2 9 42 12 155 12h152zm-2210-312c-100-100-108-106-147-106-53 0-89 38-89 92 0 32 11 47 106 144l106 107 65-66 64-66z"/>
  <path d="m60 4063c-49-18-64-68-34-111 15-22 16-22 318-22 281 0 304 1 319 18 26 29 22 77-9 101-26 20-38 21-303 20-152 0-283-3-291-6z"/>
  <path d="m30 2610c-27-27-26-74 2-100 21-19 33-20 445-20 410 0 424 1 443 20 11 11 20 33 20 50s-9 39-20 50c-19 19-33 20-445 20s-426-1-445-20z"/>
  <path d="m26 1168c-22-31-20-71 5-94 20-18 43-19 357-22 363-3 387 0 399 47 9 33 5 51-14 74-15 16-46 17-374 17h-358z"/>
 </g>
</svg>
